<?xml version="1.0" standalone="no"?>
<!DOCTYPE svg PUBLIC "-//W3C//DTD SVG 20010904//EN"
 "http://www.w3.org/TR/2001/REC-SVG-20010904/DTD/svg10.dtd">
<svg version="1.0" xmlns="http://www.w3.org/2000/svg"
 width="1024.000000pt" height="512.000000pt" viewBox="0 0 1024.000000 512.000000"
 preserveAspectRatio="xMidYMid meet">

<g transform="translate(0.000000,512.000000) scale(0.100000,-0.100000)"
fill="#000000" stroke="none">
<path d="M5771 4539 c-44 -18 -82 -51 -102 -92 -22 -41 -29 -113 -15 -154 6
-19 -8 -30 -139 -109 -133 -79 -147 -86 -163 -72 -59 53 -159 64 -227 25 -21
-12 -53 -42 -70 -65 -26 -38 -30 -53 -30 -107 0 -83 35 -137 114 -177 l55 -28
-694 0 c-686 0 -694 0 -738 -21 -26 -13 -54 -38 -70 -62 l-27 -41 -3 -604 c-2
-567 -4 -603 -20 -596 -9 4 -49 14 -89 23 -158 34 -328 -33 -424 -168 -92
-129 -104 -305 -29 -450 34 -68 120 -147 196 -183 58 -27 83 -32 178 -38 67
-4 126 -13 149 -23 l37 -16 0 -493 c0 -302 4 -507 10 -530 13 -45 75 -103 127
-118 27 -8 278 -10 854 -8 l815 3 42 27 c82 55 76 -1 82 848 l5 755 165 3 165
2 88 -145 c134 -219 101 -216 256 -21 l133 166 43 0 c53 0 91 28 105 78 18 59
9 741 -9 768 -36 54 -34 54 -510 54 l-440 0 -3 338 -3 339 -29 37 c-44 58 -93
75 -211 76 l-100 0 45 21 c25 11 54 29 65 39 21 19 22 19 158 -63 135 -81 138
-83 133 -113 -12 -82 33 -162 112 -201 44 -21 61 -25 104 -20 105 13 173 88
173 192 0 80 -27 131 -90 170 -80 50 -182 38 -244 -29 -14 -14 -28 -26 -33
-26 -4 0 -63 34 -130 75 l-123 75 -1 73 c0 39 -2 78 -5 86 -3 9 44 43 136 98
110 67 143 83 155 74 69 -50 152 -65 217 -40 66 25 123 110 123 184 0 47 -28
111 -61 142 -51 47 -147 66 -208 42z m158 -46 c47 -36 71 -81 71 -138 0 -124
-121 -199 -230 -143 -61 32 -90 77 -90 143 0 66 29 111 90 143 53 28 117 25
159 -5z m-614 -397 c19 -15 42 -40 50 -56 23 -44 19 -121 -8 -161 -24 -37 -97
-79 -137 -79 -40 0 -113 42 -137 79 -30 44 -31 117 -2 172 40 80 158 102 234
45z m622 -346 c93 -68 81 -225 -20 -274 -78 -37 -164 -11 -214 63 -46 69 -18
181 55 221 51 28 135 23 179 -10z m-508 -9 c51 -10 87 -35 119 -81 22 -33 22
-37 22 -361 l0 -329 -70 0 -70 0 0 168 c0 193 -8 222 -75 259 l-40 23 -683 0
c-747 0 -723 2 -775 -59 l-27 -33 0 -521 0 -521 -43 46 c-24 25 -58 53 -75 64
l-32 18 0 599 c0 535 2 603 16 634 21 43 69 80 120 92 49 11 1553 13 1613 2z
m-89 -359 c62 -33 71 -65 68 -247 l-3 -160 -252 -5 -253 -5 -27 -28 -28 -27
-3 -385 -3 -384 29 -32 c26 -30 37 -34 103 -40 41 -4 154 -8 252 -8 l177 -1 0
-479 c0 -476 0 -478 -22 -506 -44 -56 -31 -55 -750 -55 -626 0 -665 1 -704 19
-76 35 -74 21 -74 428 0 360 0 363 25 437 17 50 25 97 25 141 0 44 -8 91 -25
141 l-25 74 0 529 c0 527 0 528 22 556 43 55 27 54 758 55 636 0 677 -1 710
-18z m974 -455 l120 -2 -58 -63 c-67 -72 -183 -170 -273 -230 -34 -23 -64 -42
-66 -42 -2 0 -2 22 1 49 16 171 -195 267 -326 148 l-22 -21 -28 27 c-15 14
-40 31 -55 36 -39 15 -111 14 -150 -3 -71 -29 -125 -127 -111 -201 7 -42 58
-129 114 -195 47 -56 54 -50 -90 -76 -68 -13 -150 -18 -287 -18 -105 -1 -194
1 -197 4 -3 3 -8 126 -12 272 l-7 266 29 29 29 28 635 -3 c349 -1 689 -3 754
-5z m-720 -141 c18 -8 46 -30 61 -50 33 -44 45 -45 68 -6 20 34 83 70 122 70
28 0 95 -25 95 -36 0 -27 -77 -141 -135 -200 -72 -73 -119 -103 -212 -135
l-54 -18 -37 40 c-20 22 -54 68 -74 102 -32 51 -38 69 -38 118 0 53 2 59 40
93 34 30 47 36 85 36 25 0 61 -6 79 -14z m-1998 -371 c91 -26 179 -104 231
-206 26 -50 28 -63 28 -165 0 -105 -2 -114 -32 -174 -32 -60 -33 -68 -33 -176
0 -63 -4 -114 -9 -114 -5 0 -59 18 -120 40 -90 32 -120 38 -154 34 -24 -4 -70
-1 -103 6 -312 64 -428 437 -206 659 107 107 243 139 398 96z m1972 -1102 l-3
-758 -24 -34 c-13 -18 -42 -42 -65 -52 -39 -18 -83 -19 -848 -19 -546 0 -816
3 -835 11 -38 14 -83 57 -99 96 -11 26 -14 129 -14 523 0 316 4 490 10 490 5
0 33 -9 62 -20 29 -11 56 -20 60 -20 4 0 9 17 11 38 2 20 4 -75 5 -213 2 -287
6 -300 87 -336 43 -19 67 -19 727 -17 l683 3 35 22 c68 42 65 18 68 556 l3
487 70 0 69 0 -2 -757z"/>
<path d="M4412 3588 c-18 -18 -14 -56 7 -68 12 -6 99 -10 214 -10 181 0 195 1
212 20 15 17 16 24 7 45 l-12 25 -208 0 c-148 0 -211 -3 -220 -12z m423 -33
c0 -19 -7 -20 -205 -20 l-205 0 -3 23 -3 22 208 -2 c200 -3 208 -4 208 -23z"/>
<path d="M3254 2075 c-33 -51 7 -97 71 -81 56 14 35 106 -25 106 -20 0 -35 -8
-46 -25z"/>
<path d="M3436 2084 c-19 -18 -21 -65 -4 -82 7 -7 26 -12 43 -12 40 0 55 16
55 57 0 49 -59 72 -94 37z"/>
<path d="M3607 2082 c-23 -25 -21 -58 3 -82 25 -25 41 -25 74 1 30 23 33 45
10 77 -19 27 -64 29 -87 4z"/>
<path d="M4536 897 c-145 -90 -99 -316 68 -334 82 -10 155 30 187 101 36 79
13 169 -56 222 -53 40 -143 45 -199 11z"/>
<path d="M6853 3975 c-327 -91 -330 -551 -5 -646 40 -11 42 -14 42 -49 0 -32
-4 -39 -25 -44 l-25 -6 0 -166 0 -166 29 -29 c33 -33 75 -38 120 -14 45 23 52
55 49 220 -3 145 -4 150 -25 160 -18 8 -23 18 -23 47 0 33 4 38 28 44 89 22
182 97 223 182 33 70 38 189 10 263 -59 156 -240 248 -398 204z m173 -40 c68
-21 88 -38 80 -69 l-6 -25 -44 25 c-136 76 -308 7 -352 -142 -26 -92 -7 -172
59 -241 l30 -32 -29 -7 c-24 -6 -32 -2 -59 29 -36 41 -65 121 -65 176 0 55 26
132 59 178 73 101 206 145 327 108z m5 -98 c53 -28 98 -90 109 -148 27 -145
-108 -272 -249 -235 -101 26 -150 85 -158 190 -5 57 -2 70 20 108 32 55 56 76
104 94 59 21 124 17 174 -9z m-81 -562 c0 -19 -4 -35 -10 -35 -5 0 -10 16 -10
35 0 19 5 35 10 35 6 0 10 -16 10 -35z m11 -75 l39 0 0 -85 0 -85 -65 0 -65 0
0 84 c0 85 7 100 38 90 8 -2 31 -4 53 -4z m39 -225 c0 -12 -14 -15 -65 -15
-51 0 -65 3 -65 15 0 12 14 15 65 15 51 0 65 -3 65 -15z m-15 -75 c-22 -24
-67 -26 -89 -4 -9 8 -16 17 -16 20 0 2 28 4 62 4 60 0 61 0 43 -20z"/>
<path d="M6846 2214 c-9 -8 -16 -23 -16 -33 0 -10 -11 -23 -24 -31 -42 -22
-48 -54 -44 -235 l3 -167 28 -24 28 -24 315 0 c330 0 362 4 378 45 3 9 6 96 6
194 l0 178 -26 24 c-25 24 -28 24 -255 27 -179 2 -229 6 -229 16 0 7 -8 20
-18 29 -25 23 -124 23 -146 1z m132 -16 c23 -23 12 -28 -58 -28 -38 0 -70 4
-70 8 0 19 27 32 70 32 25 0 51 -5 58 -12z m485 -73 c-2 -5 -47 -12 -100 -15
l-98 -5 -3 -52 -3 -53 42 0 c50 0 46 -7 -31 -49 l-55 -31 143 0 142 0 0 -25 0
-25 -147 0 -148 0 0 54 c0 90 -56 147 -152 154 -49 3 -64 0 -93 -20 -19 -13
-45 -39 -58 -58 -20 -30 -23 -45 -20 -97 l4 -62 -36 -4 c-32 -3 -31 -4 10 -6
35 -1 49 -7 63 -27 l19 -25 -79 3 -78 3 3 160 c3 148 4 161 24 178 19 16 47
17 337 15 204 -2 315 -7 314 -13z m-33 -75 l0 -30 -70 0 -70 0 0 30 0 30 70 0
70 0 0 -30z m-308 -22 c58 -41 75 -125 38 -185 -56 -92 -194 -81 -244 20 -23
47 -16 94 21 138 52 61 123 71 185 27z m378 -223 l0 -25 -175 0 -175 0 16 25
c16 25 17 25 175 25 l159 0 0 -25z"/>
<path d="M6976 2021 c-39 -26 -55 -57 -56 -106 0 -74 51 -124 128 -125 35 0
49 6 80 34 34 32 37 39 37 90 0 49 -4 59 -32 87 -41 41 -113 51 -157 20z m108
-11 c51 -19 74 -93 46 -145 -20 -38 -73 -59 -115 -45 -86 28 -102 136 -27 183
31 19 60 21 96 7z"/>
<path d="M6220 1332 c0 -42 -4 -50 -24 -60 -21 -9 -28 -6 -57 24 -18 19 -38
34 -44 34 -6 0 -37 -27 -70 -60 l-59 -60 38 -39 c33 -34 36 -42 27 -60 -10
-17 -21 -21 -61 -21 l-50 0 0 -90 0 -90 50 0 c43 0 52 -3 59 -22 7 -19 3 -30
-27 -61 l-36 -37 64 -65 64 -65 36 35 c26 25 41 33 57 29 19 -5 23 -14 25 -58
l3 -51 90 0 90 0 3 52 c4 71 29 80 81 29 l37 -36 64 65 64 65 -36 37 c-30 31
-34 42 -27 61 7 19 16 22 59 22 l50 0 0 90 0 90 -50 0 c-40 0 -51 4 -61 21 -9
18 -6 26 27 60 l38 39 -59 60 c-33 33 -64 60 -70 60 -6 0 -26 -15 -44 -34 -29
-30 -36 -33 -57 -24 -20 10 -24 18 -24 60 l0 48 -85 0 -85 0 0 -48z m150 -22
c0 -48 1 -50 37 -65 36 -15 37 -15 68 15 33 32 55 39 55 17 0 -50 -68 -227
-88 -227 -4 0 -14 13 -23 28 -18 32 -74 62 -113 62 -123 0 -187 -148 -104
-237 l21 -22 -26 -10 c-14 -6 -48 -13 -74 -17 l-48 -6 -16 44 c-16 42 -16 43
-67 46 l-52 3 0 59 0 59 52 3 c50 3 53 4 67 41 14 37 14 38 -20 73 l-33 34 42
42 42 42 33 -32 c33 -32 34 -32 73 -19 38 14 39 15 42 65 l3 52 65 0 64 0 0
-50z m-11 -215 c16 -8 36 -31 46 -51 50 -107 -83 -205 -174 -128 -101 85 10
241 128 179z"/>
</g>
</svg>
